<?xml version="1.0" encoding="utf-8"?>
<!-- Generator: Adobe Illustrator 21.1.0, SVG Export Plug-In . SVG Version: 6.00 Build 0)  -->
<svg version="1.1" xmlns="http://www.w3.org/2000/svg" xmlns:xlink="http://www.w3.org/1999/xlink" x="0px" y="0px"
	 viewBox="0 0 989 194" style="enable-background:new 0 0 989 194;" xml:space="preserve">
<style type="text/css">
	.st0{fill:#231F20;}
	.st1{display:none;}
	.st2{display:inline;}
	.st3{fill:#FFFFFF;}
	.card__item:hover .st0 { fill: white; }
</style>
<g id="Layer_5">
	<g>
		<polygon points="231.4,81.6 206.5,133.2 203.5,81.6 174.9,81.6 176.5,111.7 166.1,133.2 163.1,81.6 134.5,81.6 138.7,156.2 
			167.4,156.2 177.8,134.7 179,156.2 207.8,156.2 243.9,81.6 		"/>
		<polygon points="284.2,63 255.5,63 253.3,73.3 282.1,73.3 		"/>
		<polygon points="251.5,81.6 235.7,156.2 264.5,156.2 280.3,81.6 		"/>
		<path d="M364.9,84.9c-1.7-2.2-4.3-3.2-7.8-3.2h-61.3l-19.7,93.2h28.8l3.9-18.6h29.8c4.3,0,8.1-1.3,11.4-4
			c3.3-2.7,5.4-6.2,6.3-10.6l10-48.3C367,89.8,366.6,87,364.9,84.9z M326.5,145.9H311l11.5-54H338L326.5,145.9z"/>
		<path d="M437.6,81.6h-49.7c-3.4,0-6.5,1.1-9.1,3.2c-2.7,2.2-4.3,5-5.1,8.4l-10.3,48.3c-1,4.4-0.4,7.9,1.7,10.6
			c2.1,2.7,5.4,4,9.8,4h58.3l2.2-10.3h-44.2l2.3-10.3h44.2l8.9-42.4c0.7-3.4,0.2-6.2-1.4-8.4C443.6,82.7,441,81.6,437.6,81.6z
			 M411.3,125.1h-15.5l7.2-33.2h15.5L411.3,125.1z"/>
		<polyline points="619.6,40.6 903.1,40.6 878.6,155.9 922.5,155.9 947,40.6 979.8,40.6 983.3,24.1 603.1,24.1 619.6,40.6 		"/>
		<path d="M619.6,40.6"/>
		<path d="M486.3,40.6"/>
		<path d="M486.3,40.6h-14.1H68.8L60,81.8h50.8c6.2,0,10.9,1.9,13.8,5.6c3,3.8,3.8,8.8,2.4,15l-6.9,32.9c-1.4,6.2-4.4,11.2-9,15
			c-4.6,3.8-9.9,5.6-16,5.6H21.1c-6.2,0-10.8-1.9-13.8-5.6c-2.9-3.8-3.8-8.8-2.5-15l3.6-17.8h43.9l-4.6,22h27.5l8.8-41.3H33.3
			c-6.2,0-10.9-1.9-13.8-5.6c-3-3.8-3.8-8.8-2.4-15l6.9-32.9c1.4-6.2,4.4-11.2,9-15c4.6-3.8,9.9-5.6,16-5.6h413.7h38.8L486.3,40.6z"
			/>
		<path d="M696,74.6h35l2.4-11.6h-51.4c-4.3,0-8.1,1.3-11.3,4c-3.2,2.7-5.4,6.2-6.3,10.6l-13.5,64c-1,4.4-0.4,7.9,1.7,10.6
			c2.1,2.7,5.4,4,9.8,4h51.4l2.4-11.6h-35.8L696,74.6z"/>
		<path d="M800.2,81.6h-47l-2.2,10.3h30l-2.3,10.4h-32.7c-3.4,0-6.4,1.1-9,3.2c-2.6,2.2-4.3,5-5,8.4l-5.8,27.7
			c-1,4.4-0.4,7.9,1.7,10.6c2.1,2.7,5.4,4,9.8,4h58.2l13.4-62.9c0.7-3.4,0.2-6.2-1.4-8.4C806.2,82.7,803.6,81.6,800.2,81.6z
			 M769.4,145.9h-15.5l7.2-33.2h15.5L769.4,145.9z"/>
		<path d="M882.3,81.6h-45.1c-3.4,0-6.5,1.1-9.1,3.2c-2.7,2.2-4.3,5-5.1,8.4l-13.4,62.9h28.8l13.8-64.3h27.9L882.3,81.6z"/>
	</g>
</g>
<g id="Layer_2">
	<path d="M550,3.9c-51.5,0-93.2,41.7-93.2,93.2c0,51.5,41.7,93.2,93.2,93.2c51.5,0,93.2-41.7,93.2-93.2
		C643.2,45.6,601.5,3.9,550,3.9z M550,180.7c-46.2,0-83.6-37.4-83.6-83.6c0-46.2,37.4-83.6,83.6-83.6c46.2,0,83.6,37.4,83.6,83.6
		C633.6,143.2,596.2,180.7,550,180.7z"/>
</g>
<g id="Layer_4">
	<line x1="624.3" y1="108.1" x2="614.9" y2="102.9"/>
	<path d="M615.1,90.3c0.3,4.7,0.2,9.3-0.4,13.8l9.5,4.4c0-0.1,0-0.2,0.1-0.4c0.5-3.6,0.8-7.3,0.8-11c0-41.5-33.6-75.1-75.1-75.1
		c-19.7,0-37.6,7.6-51,20c11-9,24.8-14.8,40.2-15.9C578.3,23.2,612.3,52,615.1,90.3z"/>
	<path d="M485.4,91.9c0.5-4.7,1.5-9.2,2.9-13.5l-8.5-6.1c0,0.1-0.1,0.2-0.1,0.4c-1.2,3.4-2.1,7-2.8,10.7
		c-7.5,40.8,19.4,79.9,60.2,87.4c19.3,3.6,38.3-0.6,53.7-10.4c-12.4,6.8-27.1,10.1-42.4,8.4C509.4,164.5,481.2,130.1,485.4,91.9z"/>
</g>
<g id="Layer_1">
	<g>
		<path class="st0" d="M604.6,115.3h-70.7l-23.1-59.5c-0.8-1.9-2.6-3.2-4.7-3.2h-14.3c-2.8,0-5,2.2-5,5c0,2.8,2.2,5,5,5h10.9
			l23.1,59.5c0.8,1.9,2.6,3.2,4.7,3.2h74.1c2.8,0,5-2.2,5-5C609.6,117.5,607.3,115.3,604.6,115.3z"/>
		<path class="st0" d="M537.5,104.2c0,2.8,2.2,5,5,5h54c2.8,0,5-2.2,5-5c0-2.8-2.2-5-5-5h-54C539.8,99.2,537.5,101.5,537.5,104.2z"
			/>
		<path class="st0" d="M531.4,89.4c0,2.8,2.2,5,5,5H590c2.8,0,5-2.2,5-5c0-2.8-2.2-5-5-5h-53.6C533.6,84.4,531.4,86.7,531.4,89.4z"
			/>
		<path class="st0" d="M530.1,79.6h53c2.8,0,5-2.2,5-5c0-2.8-2.2-5-5-5h-53c-2.8,0-5,2.2-5,5C525,77.4,527.3,79.6,530.1,79.6z"/>
		<circle class="st0" cx="540.4" cy="138.5" r="9.9"/>
		<circle class="st0" cx="596.2" cy="138.5" r="9.9"/>
	</g>
</g>
<g id="Layer_6" class="st1">
	<polygon class="st2" points="638.6,365.7 583.7,422.1 583.7,393.8 537.5,393.8 537.5,337.6 583.8,337.6 583.8,309.4 	"/>
	<text transform="matrix(1 0 0 1 123.2344 525.4062)" class="st2" style="font-family:'Aero'; font-size:135.0186px;">wipe</text>
	<text transform="matrix(1 0 0 1 6.792 525.1934)" class="st2" style="font-family:'Aero'; font-size:191px;">S</text>
	<text transform="matrix(1 0 0 1 1004.792 525.1934)" class="st2" style="font-family:'Aero'; font-size:191px;">T</text>
	<text transform="matrix(1 0 0 1 800.3344 525.4062)" class="st2" style="font-family:'Aero'; font-size:135.0186px;">Car</text>
	<g class="st2">
		<path d="M271.8,275.3c-0.6,2,0.4,4.1,2.4,4.7l3.9,1.3c2.6,1,4.3,2,6,7.5l14.5,51.4l-4.7,10.1c-1.9,4.8-0.9,7.8,0.2,9.5
			c1.2,1.7,3.6,3.8,8.4,3.8h5.4v1.6c-3.8,1.2-6.6,4.7-6.6,8.9c0,5.1,4.2,9.3,9.3,9.3c5.1,0,9.3-4.2,9.3-9.3c0-4.2-2.8-7.7-6.6-8.9
			v-1.6h39.1v1.6c-3.8,1.2-6.6,4.7-6.6,8.9c0,5.1,4.2,9.3,9.3,9.3c5.1,0,9.3-4.2,9.3-9.3c0-4.2-2.8-7.7-6.6-8.9v-1.6h7.7l2.9,3.5
			c0.7,0.9,1.8,1.4,2.9,1.4c0.8,0,1.7-0.3,2.4-0.8c1.6-1.3,1.8-3.7,0.5-5.3l-4-4.9c-0.7-0.9-1.8-1.4-2.9-1.4h-64.5
			c-1.6,0-2.2-0.4-2.2-0.5c-0.1-0.1-0.2-0.8,0.4-2.4l4.2-8.9l62,0c1.9,0,3.5-1.5,3.7-3.4l1.5-14.5c-0.1,0-0.2,0-0.3,0
			c-2.5,0-4.9-0.3-7.2-0.9l-0.2,1.8l-10.6-0.3l0.1-5.7l1.2,0.1c-2-1.3-3.8-2.9-5.5-4.6l-14.1-0.9l-0.6-6.5l10,0.9
			c-0.8-1.4-1.4-2.9-1.9-4.5l-8.4-0.8l-0.6-6.4l7.5,0.9c-0.1-1.2-0.2-2.4-0.2-3.6c0-1.3,0.1-2.6,0.3-3.9l-50.7-6.1
			c-2.4-7.5-5.8-10.1-10.5-11.9l-4.1-1.4C274.6,272.3,272.4,273.4,271.8,275.3z M353.7,337l0.1-5.5l10.2,0.2l-0.5,5.3L353.7,337z
			 M336.9,331.1l12.6,0.3l-0.1,5.6l-12,0L336.9,331.1z M336,320.4l13.8,0.8l-0.1,5.8l-13.1-0.3L336,320.4z M352.3,371.2v2.4
			c0,1.5,1.2,2.7,2.7,2.7c1.5,0,2.7-1.2,2.7-2.7v-2.4c0.8,0.7,1.3,1.8,1.3,2.9c0,2.2-1.8,4-4,4c-2.2,0-4-1.8-4-4
			C351,373,351.5,372,352.3,371.2z M307.9,371.2v2.4c0,1.5,1.2,2.7,2.7,2.7c1.5,0,2.7-1.2,2.7-2.7v-2.4c0.8,0.7,1.3,1.8,1.3,2.9
			c0,2.2-1.8,4-4,4c-2.2,0-4-1.8-4-4C306.6,373,307.1,372,307.9,371.2z M330.4,304.9l-15.4-1.4l-1.3-7.1l16.1,1.9L330.4,304.9z
			 M319.9,330.7l12.7,0.3l0.5,6.1l-12.1,0L319.9,330.7z M317.8,319.3l13.8,0.8l0.6,6.5l-13.1-0.3L317.8,319.3z M317.1,315l-1.3-7.1
			l14.9,1.3l0.6,6.6L317.1,315z M303.5,330.3l12,0.3l1.2,6.5l-11.3,0L303.5,330.3z M300.1,318.2l13.3,0.8l1.3,7.2l-12.5-0.3
			L300.1,318.2z M296.7,306.2l14.7,1.3l1.3,7.2l-13.8-0.8L296.7,306.2z M293.3,294l16,1.9l1.3,7.2l-15.1-1.4L293.3,294z"/>
		<path d="M349,296.2c0,12.6,10.2,22.8,22.8,22.8c12.6,0,22.8-10.2,22.8-22.8c0-12.6-10.2-22.8-22.8-22.8
			C359.2,273.4,349,283.6,349,296.2z M357.7,289.4h16.6v-7.1l13.8,14.1l-13.7,14.1v-7.1l-16.6,0V289.4z"/>
	</g>
	<g class="st2">
		<circle cx="759.5" cy="323" r="93.2"/>
		<circle class="st3" cx="759.5" cy="323" r="83.6"/>
		<path d="M824.6,316.2c0.3,4.7,0.2,9.3-0.4,13.8l9.5,4.4c0-0.1,0-0.2,0.1-0.4c0.5-3.6,0.8-7.3,0.8-11c0-41.5-33.6-75.1-75.1-75.1
			c-19.7,0-37.6,7.6-51,20c11-9,24.8-14.8,40.2-15.9C787.8,249.1,821.8,277.9,824.6,316.2z"/>
		<path d="M694.9,317.8c0.5-4.7,1.5-9.2,2.9-13.5l-8.5-6.1c0,0.1-0.1,0.2-0.1,0.4c-1.2,3.4-2.1,7-2.8,10.7
			c-7.5,40.8,19.4,79.9,60.2,87.4c19.3,3.6,38.3-0.6,53.7-10.4c-12.4,6.8-27.1,10.1-42.4,8.4C718.9,390.5,690.7,356,694.9,317.8z"/>
		<g>
			<path class="st0" d="M814.1,341.2h-70.7l-23.1-59.5c-0.8-1.9-2.6-3.2-4.7-3.2h-14.3c-2.8,0-5,2.2-5,5c0,2.8,2.2,5,5,5h10.9
				l23.1,59.5c0.8,1.9,2.6,3.2,4.7,3.2h74.1c2.8,0,5-2.2,5-5C819.1,343.5,816.8,341.2,814.1,341.2z"/>
			<path class="st0" d="M747,330.2c0,2.8,2.2,5,5,5h54c2.8,0,5-2.2,5-5c0-2.8-2.2-5-5-5h-54C749.3,325.1,747,327.4,747,330.2z"/>
			<path class="st0" d="M740.9,315.4c0,2.8,2.2,5,5,5h53.6c2.8,0,5-2.2,5-5c0-2.8-2.2-5-5-5h-53.6
				C743.1,310.3,740.9,312.6,740.9,315.4z"/>
			<path class="st0" d="M739.6,305.6h53c2.8,0,5-2.2,5-5c0-2.8-2.2-5-5-5h-53c-2.8,0-5,2.2-5,5C734.5,303.3,736.8,305.6,739.6,305.6
				z"/>
			<circle class="st0" cx="749.9" cy="364.5" r="9.9"/>
			<circle class="st0" cx="805.7" cy="364.5" r="9.9"/>
		</g>
	</g>
</g>
</svg>
